<?xml version="1.0" encoding="utf-8"?>
<!-- Generator: Adobe Illustrator 21.1.0, SVG Export Plug-In . SVG Version: 6.00 Build 0)  -->
<svg version="1.1" id="Layer_1" xmlns="http://www.w3.org/2000/svg" xmlns:xlink="http://www.w3.org/1999/xlink" x="0px" y="0px"
	 viewBox="0 0 100 125" style="enable-background:new 0 0 100 125;" xml:space="preserve">
<style type="text/css">
	.st0{fill:#FFFFFF;}
</style>
<g>
	<path class="st0" d="M78.3,22.1H22.6c-2.2,0-4,1.8-4,4s1.8,4,4,4h55.7c2.2,0,4-1.8,4-4S80.5,22.1,78.3,22.1z"/>
	<path class="st0" d="M78.3,47H22.6c-2.2,0-4,1.8-4,4s1.8,4,4,4h55.7c2.2,0,4-1.8,4-4S80.5,47,78.3,47z"/>
	<path class="st0" d="M78.3,71.8H22.6c-2.2,0-4,1.8-4,4s1.8,4,4,4h55.7c2.2,0,4-1.8,4-4S80.5,71.8,78.3,71.8z"/>
</g>
</svg>
